<svg viewBox="0 0 130 130" xml:space="preserve" xmlns="http://www.w3.org/2000/svg"><path d="M54.196 24.007v12.259c0 3.539-2.436 6.411-5.438 6.411-3.001 0-5.438-2.871-5.438-6.411V24.007c-6.519.159-11.781 7.97-11.781 17.604 0 9.739 5.625 17.635 12.235 17.635v51.838c0 3.244 2.231 5.878 4.984 5.878 2.755 0 4.986-2.631 4.986-5.878V59.243c6.609 0 12.233-7.896 12.233-17.635 0-9.631-5.261-17.442-11.781-17.601z" fill="none" stroke="#000000" stroke-miterlimit="10" stroke-width="2" class="stroke-3262f9"></path><g fill="none" stroke="#000000" stroke-miterlimit="10" stroke-width="2" class="stroke-3262f9"><path d="M95.115 111.84c0 1.896-2.311 3.79-4.712 3.79h-7.25c-2.402 0-3.988-1.897-3.988-3.79V80.994c0-1.895 1.586-3.064 3.988-3.064h7.25c2.401 0 4.712 1.172 4.712 3.064v30.846zM86.778 77.204v38.063"></path><path d="M94.753 74.305c0 1.951-1.34 3.625-2.99 3.625h-9.969c-1.654 0-2.992-1.674-2.992-3.625s1.339-3.625 2.992-3.625h9.969c1.65 0 2.99 1.674 2.99 3.625zM92.759 40.954c0-6.405-4.712-17.399-5.438-19.212-.602-1.506-6.524 12.807-6.524 19.212 0 5.116 2.899 9.402 2.899 10.332v16.313a2.72 2.72 0 0 0 2.719 2.719h.363a2.72 2.72 0 0 0 2.719-2.719V51.286c0-.857 3.262-5.067 3.262-10.332z"></path></g></svg>