<svg data-name="Layer 1" viewBox="0 0 512 512" xmlns="http://www.w3.org/2000/svg"><path d="m448.24 140.92-.77-.77c-19.39-19.2-39.75-31.51-62.15-37.62l-1.8-.47-2.06-.53c-17.63-4.21-36.52-4.7-59-1.51l-2.73.42-1.43.21c-15.69 2.48-31.56 6.39-46.92 10.19-4.94 1.22-9.88 2.44-14.81 3.62-20 4.76-41.36 9.16-62.57 9.16-21.56 0-40.81-4.58-58.74-14l3.58-20.32A8 8 0 1 0 123 86.54L63.75 422.68a8 8 0 0 0 6.49 9.32 7.34 7.34 0 0 0 1.39.13 8 8 0 0 0 7.87-6.62l24.33-137.95c17.08 15.13 35 25.12 54.48 30.43l1.79.46 2.08.53a135 135 0 0 0 31.66 3.59 194.88 194.88 0 0 0 27.36-2.07l2.73-.41 1.42-.21c15.69-2.48 31.56-6.39 46.92-10.19 4.94-1.22 9.88-2.44 14.81-3.61 20-4.76 41.35-9.16 62.57-9.16 22.89 0 43.19 5.16 62.05 15.76l2.43 1.37.52-2.74c3.74-19.76 7.48-39.28 11.11-58v-.13c3.72-19.19 7.45-38.14 11.08-56.32v-.15c3.72-18.66 7.45-37 11.08-54.66ZM348 292.87c-20 .22-40.05 4.15-58.88 8.57v-.28q5.19-31.52 10.36-62.94c16.48-3.58 37.66-7.31 58.93-6.05-.22 1.29-.45 2.59-.67 3.89l-.42 2.39q-.48 2.81-1 5.62l-.36 2.09c-2.57 15.29-5.26 30.93-7.96 46.71Zm-161.71-111 .84-4.88c.16-.88.31-1.75.46-2.64a5442 5442 0 0 0 1.26-7.33 1.06 1.06 0 0 0 0-.19c2.22-12.88 4.47-26 6.73-39.19 20-.21 40-4.15 58.88-8.56v.15q-5.19 31.58-10.38 63.06c-16.49 3.58-37.66 7.31-58.93 6.05l.48-2.79c.24-1.27.45-2.49.66-3.72Zm109.73 53c-8.25 1.84-16.6 3.89-24.69 5.89-11.2 2.77-22.75 5.62-34.14 7.89q5.2-31.44 10.41-63c8.25-1.84 16.6-3.89 24.69-5.89 11.2-2.77 22.75-5.62 34.15-7.89q-5.22 31.44-10.42 63ZM180.47 192c-.13.75-.25 1.49-.38 2.24-.28 1.58-.55 3.17-.83 4.76-.17 1-.33 1.91-.5 2.87-.29 1.69-.59 3.39-.88 5.09l-.21 1.18c-2.55 14.68-5.09 29.2-7.58 43.38-20-3.54-38.17-11.82-55.46-25.24l9.42-53.45A125.09 125.09 0 0 0 180.47 192Zm242 57.54a125.52 125.52 0 0 0-59.3-21c.11-.63.21-1.25.32-1.88q.48-2.72.94-5.41l.27-1.53c.36-2.1.73-4.21 1.09-6.3l.06-.34q1.44-8.26 2.86-16.43.54-3 1.06-6.06v-.1c.45-2.56.89-5.11 1.34-7.65.05-.3.1-.6.16-.9l1.23-7 .08-.43c.32-1.83.64-3.64.95-5.45 21.41 3.8 40.81 13.05 59.22 28.24-3.38 16.83-6.84 34.41-10.3 52.22Zm-41.74-144.08q-1.17 6.5-2.34 13.12l-.08.43q-2.06 11.51-4.13 23.29c-.05.24-.09.49-.13.74q-1.87 10.58-3.76 21.3c-17.22-2.51-36.09-1.73-59 2.43l3.8-22.93 1.38-8.27c.39-2.37.78-4.73 1.18-7.1q2-12.18 4.05-24.34c22.67-3.31 41.51-2.89 59.03 1.33ZM162.89 315q1.19-6.6 2.38-13.3v-.27c2.65-14.86 5.34-30 8-45.34h.13c2 .3 4.08.54 6.16.75h.42c4.45.42 9 .65 13.74.65a215.59 215.59 0 0 0 38.51-3.87q-.93 5.56-1.85 11.13-4.27 25.82-8.56 51.52c-22.57 3.38-41.41 2.96-58.93-1.27Z" fill="#ffffff" class="fill-000000"></path></svg>